<svg xmlns="http://www.w3.org/2000/svg" width="26" height="26" fill="none"><path stroke="#04293A" stroke-linecap="round" stroke-linejoin="round" stroke-width="1.5" d="M12.78 18.979c3.529 0 6.39-2.787 6.39-6.225 0-3.439-2.861-6.226-6.39-6.226-3.53 0-6.39 2.787-6.39 6.226 0 3.438 2.86 6.225 6.39 6.225z"/><path stroke="#04293A" stroke-linecap="round" stroke-linejoin="round" stroke-width="1.5" d="M10.92 10.886a1.88 1.88 0 0 1 .838-.99 1.96 1.96 0 0 1 1.295-.23c.446.074.851.3 1.142.637.292.337.452.764.451 1.206 0 1.245-1.917 1.867-1.917 1.867m.051 2.491h.006"/></svg>